<svg width="428" height="866" viewBox="0 0 428 866" fill="none" xmlns="http://www.w3.org/2000/svg">
<path d="M922.262 600.09C922.262 545.69 966.362 501.59 1020.76 501.59C1075.16 501.59 1119.26 545.69 1119.26 600.09C1119.26 654.49 1075.16 698.59 1020.76 698.59C966.362 698.59 922.262 654.49 922.262 600.09Z" fill="#E0E0E0"/>
<path d="M723.262 552.59C723.262 497.914 767.81 453.59 822.762 453.59C877.714 453.59 922.262 497.914 922.262 552.59C922.262 607.266 877.714 651.59 822.762 651.59C767.81 651.59 723.262 607.266 723.262 552.59Z" fill="#E0E0E0"/>
<path d="M370.262 721.09C370.262 682.706 401.378 651.59 439.762 651.59C478.146 651.59 509.262 682.706 509.262 721.09C509.262 759.474 478.146 790.59 439.762 790.59C401.378 790.59 370.262 759.474 370.262 721.09Z" fill="#E0E0E0"/>
<path d="M248.262 709.09C248.262 670.706 279.378 639.59 317.762 639.59C356.146 639.59 387.262 670.706 387.262 709.09C387.262 747.474 356.146 778.59 317.762 778.59C279.378 778.59 248.262 747.474 248.262 709.09Z" fill="#E0E0E0"/>
<path d="M201.262 757.09C201.262 731.409 222.081 710.59 247.762 710.59C273.443 710.59 294.262 731.409 294.262 757.09C294.262 782.771 273.443 803.59 247.762 803.59C222.081 803.59 201.262 782.771 201.262 757.09Z" fill="#E0E0E0"/>
<path d="M26.262 801.09C26.262 775.409 47.0807 754.59 72.762 754.59C98.4432 754.59 119.262 775.409 119.262 801.09C119.262 826.771 98.4432 847.59 72.762 847.59C47.0807 847.59 26.262 826.771 26.262 801.09Z" fill="#E0E0E0"/>
<path d="M-245.304 740.644C-240.689 712.298 -213.749 693.096 -185.131 697.755C-156.512 702.414 -137.054 729.17 -141.668 757.516C-146.283 785.861 -173.224 805.063 -201.842 800.404C-230.46 795.745 -249.919 768.99 -245.304 740.644Z" fill="#E0E0E0"/>
<path d="M-385.31 735.582C-380.651 706.963 -353.674 687.541 -325.056 692.2C-296.438 696.859 -277.015 723.835 -281.674 752.453C-286.333 781.071 -313.31 800.494 -341.928 795.835C-370.546 791.176 -389.969 764.2 -385.31 735.582Z" fill="#E0E0E0"/>
<path d="M-299.05 722.269C-295.988 703.463 -278.261 690.699 -259.455 693.761C-240.648 696.823 -227.885 714.55 -230.947 733.356C-234.008 752.162 -251.736 764.926 -270.542 761.864C-289.348 758.803 -302.112 741.075 -299.05 722.269Z" fill="#E0E0E0"/>
<path d="M85.262 779.59C85.262 741.482 116.602 710.59 155.262 710.59C193.922 710.59 225.262 741.482 225.262 779.59C225.262 817.698 193.922 848.59 155.262 848.59C116.602 848.59 85.262 817.698 85.262 779.59Z" fill="#E0E0E0"/>
<path d="M-181.493 790.546C-175.725 755.114 -142.325 731.066 -106.893 736.835C-71.4614 742.603 -47.4142 776.003 -53.1825 811.435C-58.9508 846.867 -92.3503 870.914 -127.782 865.146C-163.214 859.377 -187.262 825.978 -181.493 790.546Z" fill="#E0E0E0"/>
<path d="M486.262 680.09C486.262 657.722 504.171 639.59 526.262 639.59C548.353 639.59 566.262 657.722 566.262 680.09C566.262 702.458 548.353 720.59 526.262 720.59C504.171 720.59 486.262 702.458 486.262 680.09Z" fill="#E0E0E0"/>
<path d="M880.262 594.09C880.262 571.722 898.618 553.59 921.262 553.59C943.906 553.59 962.262 571.722 962.262 594.09C962.262 616.458 943.906 634.59 921.262 634.59C898.618 634.59 880.262 616.458 880.262 594.09Z" fill="#E0E0E0"/>
<path d="M666.262 594.09C666.262 571.722 684.394 553.59 706.762 553.59C729.129 553.59 747.262 571.722 747.262 594.09C747.262 616.458 729.129 634.59 706.762 634.59C684.394 634.59 666.262 616.458 666.262 594.09Z" fill="#E0E0E0"/>
<path d="M609.262 594.09C609.262 571.722 627.171 553.59 649.262 553.59C671.353 553.59 689.262 571.722 689.262 594.09C689.262 616.458 671.353 634.59 649.262 634.59C627.171 634.59 609.262 616.458 609.262 594.09Z" fill="#E0E0E0"/>
<path d="M511.688 631.318C501.885 606.926 518.027 577.471 547.743 565.528C577.458 553.586 609.495 563.679 619.298 588.071C629.101 612.464 612.958 641.919 583.243 653.861C553.527 665.804 521.491 655.711 511.688 631.318Z" fill="#E0E0E0"/>
<path d="M700.762 585.59L1064.26 622.09L1064.26 81.5899L351 81.5899L-19.5 92.0899L-373.738 50.0899L-373.738 742.59H-344.238C-334.738 742.59 -318.738 742.59 -293.238 737.09C-267.738 731.59 -259.238 730.09 -210.738 742.59C-162.238 755.09 -177.738 753.59 -157.738 766.59C-137.738 779.59 -94.738 804.09 -81.738 808.59C-68.738 813.09 -27.738 814.09 -1.23804 816.09C25.262 818.09 118.262 767.59 136.762 766.59C155.262 765.59 187.762 751.09 218.762 743.59C249.762 736.09 297.762 720.09 326.762 719.09C349.962 718.29 420.762 705.09 453.262 698.59C472.429 688.59 511.862 668.09 516.262 666.09C521.762 663.59 596.762 602.09 603.262 602.09C608.462 602.09 670.429 591.09 700.762 585.59Z" fill="#E0E0E0"/>
<path d="M922.034 520.974C922.034 458.367 966.127 407.614 1020.52 407.614C1074.91 407.614 1119 458.367 1119 520.974C1119 583.581 1074.91 634.334 1020.52 634.334C966.127 634.334 922.034 583.581 922.034 520.974Z" fill="white"/>
<path d="M723.069 466.308C723.069 403.384 767.609 352.373 822.552 352.373C877.494 352.373 922.034 403.384 922.034 466.308C922.034 529.233 877.494 580.244 822.552 580.244C767.609 580.244 723.069 529.233 723.069 466.308Z" fill="white"/>
<path d="M370.13 660.229C370.13 616.054 401.241 580.244 439.618 580.244C477.995 580.244 509.106 616.054 509.106 660.229C509.106 704.403 477.995 740.214 439.618 740.214C401.241 740.214 370.13 704.403 370.13 660.229Z" fill="white"/>
<path d="M248.151 646.418C248.151 602.244 279.262 566.433 317.639 566.433C356.017 566.433 387.127 602.244 387.127 646.418C387.127 690.593 356.017 726.403 317.639 726.403C279.262 726.403 248.151 690.593 248.151 646.418Z" fill="white"/>
<path d="M201.16 701.66C201.16 672.104 221.975 648.145 247.652 648.145C273.328 648.145 294.143 672.104 294.143 701.66C294.143 731.215 273.328 755.175 247.652 755.175C221.975 755.175 201.16 731.215 201.16 701.66Z" fill="white"/>
<path d="M26.1901 752.298C26.1901 722.742 47.0052 698.782 72.682 698.782C98.3588 698.782 119.174 722.742 119.174 752.298C119.174 781.853 98.3588 805.813 72.682 805.813C47.0052 805.813 26.1901 781.853 26.1901 752.298Z" fill="white"/>
<path d="M-245.328 682.732C-240.715 650.11 -213.779 628.012 -185.166 633.374C-156.552 638.736 -137.097 669.528 -141.711 702.15C-146.325 734.771 -173.261 756.87 -201.874 751.508C-230.487 746.146 -249.942 715.354 -245.328 682.732Z" fill="white"/>
<path d="M-385.31 676.906C-380.652 643.971 -353.68 621.618 -325.067 626.98C-296.454 632.342 -277.034 663.388 -281.693 696.323C-286.351 729.259 -313.323 751.612 -341.936 746.25C-370.549 740.888 -389.968 709.842 -385.31 676.906Z" fill="white"/>
<path d="M-299.065 661.586C-296.004 639.942 -278.28 625.253 -259.477 628.777C-240.674 632.3 -227.912 652.702 -230.974 674.345C-234.035 695.989 -251.759 710.678 -270.562 707.154C-289.365 703.631 -302.126 683.229 -299.065 661.586Z" fill="white"/>
<path d="M85.1798 727.554C85.1798 683.697 116.514 648.145 155.168 648.145C193.821 648.145 225.155 683.697 225.155 727.554C225.155 771.411 193.821 806.963 155.168 806.963C116.514 806.963 85.1798 771.411 85.1798 727.554Z" fill="white"/>
<path d="M-181.529 740.163C-175.762 699.385 -142.368 671.71 -106.942 678.349C-71.5162 684.987 -47.4731 723.425 -53.2405 764.203C-59.0078 804.98 -92.4015 832.655 -127.827 826.017C-163.253 819.378 -187.296 780.94 -181.529 740.163Z" fill="white"/>
<path d="M486.11 613.043C486.11 587.301 504.016 566.433 526.103 566.433C548.191 566.433 566.096 587.301 566.096 613.043C566.096 638.785 548.191 659.653 526.103 659.653C504.016 659.653 486.11 638.785 486.11 613.043Z" fill="white"/>
<path d="M880.042 514.069C880.042 488.327 898.395 467.459 921.034 467.459C943.674 467.459 962.027 488.327 962.027 514.069C962.027 539.811 943.674 560.679 921.034 560.679C898.395 560.679 880.042 539.811 880.042 514.069Z" fill="white"/>
<path d="M666.079 514.069C666.079 488.327 684.208 467.459 706.572 467.459C728.935 467.459 747.065 488.327 747.065 514.069C747.065 539.811 728.935 560.679 706.572 560.679C684.208 560.679 666.079 539.811 666.079 514.069Z" fill="white"/>
<path d="M609.089 514.069C609.089 488.327 626.994 467.459 649.082 467.459C671.169 467.459 689.075 488.327 689.075 514.069C689.075 539.811 671.169 560.679 649.082 560.679C626.994 560.679 609.089 539.811 609.089 514.069Z" fill="white"/>
<path d="M511.532 556.914C501.73 528.841 517.87 494.942 547.58 481.198C577.291 467.455 609.321 479.07 619.123 507.143C628.924 535.215 612.784 569.114 583.074 582.858C553.364 596.602 521.333 584.986 511.532 556.914Z" fill="white"/>
<path d="M700.573 504.287L1064.01 546.293L1064.01 -1370.5H317.639L-373.74 -1380L-373.74 -112L-373.74 684.972L-344.245 684.972C-334.747 684.972 -318.75 684.972 -293.254 678.642C-267.759 672.313 -259.26 670.586 -210.769 684.972C-162.277 699.358 -177.774 697.632 -157.778 712.593C-137.781 727.554 -94.7888 755.75 -81.7911 760.929C-68.7935 766.108 -27.8004 767.259 -1.30505 769.56C25.1903 771.862 118.174 713.744 136.671 712.593C155.168 711.442 187.662 694.754 218.657 686.123C249.651 677.492 297.643 659.078 326.638 657.927C349.834 657.006 420.622 641.815 453.116 634.334C472.279 622.826 511.706 599.233 516.105 596.931C521.604 594.054 596.591 523.276 603.09 523.276C608.289 523.276 670.245 510.616 700.573 504.287Z" fill="white"/>
</svg>
