<svg width="1061" height="1117" viewBox="0 0 1061 1117" fill="none" xmlns="http://www.w3.org/2000/svg">
<path d="M265.91 1292.26C320.31 1292.26 364.41 1336.36 364.41 1390.76C364.41 1445.16 320.31 1489.26 265.91 1489.26C211.51 1489.26 167.41 1445.16 167.41 1390.76C167.41 1336.36 211.51 1292.26 265.91 1292.26Z" fill="#E0E0E0"/>
<path d="M313.41 1093.26C368.086 1093.26 412.41 1137.81 412.41 1192.76C412.41 1247.71 368.086 1292.26 313.41 1292.26C258.734 1292.26 214.41 1247.71 214.41 1192.76C214.41 1137.81 258.734 1093.26 313.41 1093.26Z" fill="#E0E0E0"/>
<path d="M144.91 740.262C183.294 740.262 214.41 771.378 214.41 809.762C214.41 848.146 183.294 879.262 144.91 879.262C106.526 879.262 75.4099 848.146 75.4099 809.762C75.4099 771.378 106.526 740.262 144.91 740.262Z" fill="#E0E0E0"/>
<path d="M156.91 618.262C195.294 618.262 226.41 649.378 226.41 687.762C226.41 726.146 195.294 757.262 156.91 757.262C118.526 757.262 87.4099 726.146 87.4099 687.762C87.4099 649.378 118.526 618.262 156.91 618.262Z" fill="#E0E0E0"/>
<path d="M108.91 571.262C134.591 571.262 155.41 592.081 155.41 617.762C155.41 643.443 134.591 664.262 108.91 664.262C83.2288 664.262 62.4099 643.443 62.4099 617.762C62.4099 592.081 83.2288 571.262 108.91 571.262Z" fill="#E0E0E0"/>
<path d="M64.9099 396.262C90.5912 396.262 111.41 417.081 111.41 442.762C111.41 468.443 90.5912 489.262 64.9099 489.262C39.2287 489.262 18.41 468.443 18.41 442.762C18.41 417.081 39.2287 396.262 64.9099 396.262Z" fill="#E0E0E0"/>
<path d="M125.356 124.696C153.702 129.311 172.904 156.251 168.245 184.869C163.586 213.488 136.83 232.946 108.484 228.332C80.1387 223.717 60.9368 196.776 65.5959 168.158C70.2549 139.54 97.0105 120.081 125.356 124.696Z" fill="#E0E0E0"/>
<path d="M130.418 -15.3098C159.037 -10.6508 178.459 16.3257 173.8 44.9438C169.141 73.562 142.165 92.9848 113.547 88.3258C84.9285 83.6668 65.5057 56.6902 70.1648 28.072C74.8238 -0.546165 101.8 -19.9688 130.418 -15.3098Z" fill="#E0E0E0"/>
<path d="M143.731 70.9501C162.537 74.0117 175.301 91.7392 172.239 110.545C169.177 129.352 151.45 142.115 132.644 139.053C113.838 135.992 101.074 118.264 104.136 99.4581C107.197 80.6519 124.925 67.8884 143.731 70.9501Z" fill="#E0E0E0"/>
<path d="M86.4099 455.262C124.518 455.262 155.41 486.602 155.41 525.262C155.41 563.922 124.518 595.262 86.4099 595.262C48.3023 595.262 17.41 563.922 17.41 525.262C17.41 486.602 48.3023 455.262 86.4099 455.262Z" fill="#E0E0E0"/>
<path d="M75.4543 188.507C110.886 194.275 134.934 227.675 129.165 263.107C123.397 298.539 89.9974 322.586 54.5654 316.818C19.1334 311.049 -4.91385 277.65 0.854461 242.218C6.62277 206.786 40.0222 182.738 75.4543 188.507Z" fill="#E0E0E0"/>
<path d="M185.91 856.262C208.278 856.262 226.41 874.171 226.41 896.262C226.41 918.353 208.278 936.262 185.91 936.262C163.542 936.262 145.41 918.353 145.41 896.262C145.41 874.171 163.542 856.262 185.91 856.262Z" fill="#E0E0E0"/>
<path d="M271.91 1250.26C294.278 1250.26 312.41 1268.62 312.41 1291.26C312.41 1313.91 294.278 1332.26 271.91 1332.26C249.542 1332.26 231.41 1313.91 231.41 1291.26C231.41 1268.62 249.542 1250.26 271.91 1250.26Z" fill="#E0E0E0"/>
<path d="M271.91 1036.26C294.278 1036.26 312.41 1054.39 312.41 1076.76C312.41 1099.13 294.278 1117.26 271.91 1117.26C249.542 1117.26 231.41 1099.13 231.41 1076.76C231.41 1054.39 249.542 1036.26 271.91 1036.26Z" fill="#E0E0E0"/>
<path d="M271.91 979.262C294.278 979.262 312.41 997.171 312.41 1019.26C312.41 1041.35 294.278 1059.26 271.91 1059.26C249.542 1059.26 231.41 1041.35 231.41 1019.26C231.41 997.171 249.542 979.262 271.91 979.262Z" fill="#E0E0E0"/>
<path d="M234.682 881.688C259.074 871.885 288.529 888.027 300.472 917.743C312.414 947.458 302.321 979.495 277.929 989.298C253.536 999.101 224.081 982.958 212.139 953.243C200.196 923.527 210.289 891.491 234.682 881.688Z" fill="#E0E0E0"/>
<path d="M280.41 1070.76L243.91 1434.26H784.41V721L773.91 350.5L815.91 -3.73804H123.41V25.762C123.41 35.262 123.41 51.262 128.91 76.762C134.41 102.262 135.91 110.762 123.41 159.262C110.91 207.762 112.41 192.262 99.41 212.262C86.41 232.262 61.9099 275.262 57.4099 288.262C52.9099 301.262 51.91 342.262 49.91 368.762C47.91 395.262 98.41 488.262 99.41 506.762C100.41 525.262 114.91 557.762 122.41 588.762C129.91 619.762 145.91 667.762 146.91 696.762C147.71 719.962 160.91 790.762 167.41 823.262C177.41 842.429 197.91 881.862 199.91 886.262C202.41 891.762 263.91 966.762 263.91 973.262C263.91 978.462 274.91 1040.43 280.41 1070.76Z" fill="#E0E0E0"/>
<path d="M345.026 1292.03C407.633 1292.03 458.386 1336.13 458.386 1390.52C458.386 1444.91 407.633 1489 345.026 1489C282.419 1489 231.666 1444.91 231.666 1390.52C231.666 1336.13 282.419 1292.03 345.026 1292.03Z" fill="white"/>
<path d="M399.692 1093.07C462.616 1093.07 513.627 1137.61 513.627 1192.55C513.627 1247.49 462.616 1292.03 399.692 1292.03C336.767 1292.03 285.756 1247.49 285.756 1192.55C285.756 1137.61 336.767 1093.07 399.692 1093.07Z" fill="white"/>
<path d="M205.771 740.13C249.946 740.13 285.756 771.241 285.756 809.618C285.756 847.995 249.946 879.106 205.771 879.106C161.597 879.106 125.786 847.995 125.786 809.618C125.786 771.241 161.597 740.13 205.771 740.13Z" fill="white"/>
<path d="M219.582 618.152C263.756 618.152 299.567 649.262 299.567 687.64C299.567 726.017 263.756 757.127 219.582 757.127C175.407 757.127 139.597 726.017 139.597 687.64C139.597 649.262 175.407 618.152 219.582 618.152Z" fill="white"/>
<path d="M164.34 571.16C193.896 571.16 217.855 591.975 217.855 617.652C217.855 643.328 193.896 664.144 164.34 664.144C134.785 664.144 110.825 643.328 110.825 617.652C110.825 591.975 134.785 571.16 164.34 571.16Z" fill="white"/>
<path d="M113.702 396.19C143.258 396.19 167.218 417.005 167.218 442.682C167.218 468.359 143.258 489.174 113.702 489.174C84.1468 489.174 60.1874 468.359 60.1874 442.682C60.1874 417.005 84.1468 396.19 113.702 396.19Z" fill="white"/>
<path d="M183.268 124.672C215.89 129.285 237.988 156.221 232.626 184.834C227.264 213.448 196.472 232.903 163.85 228.289C131.229 223.675 109.13 196.739 114.492 168.126C119.854 139.513 150.646 120.058 183.268 124.672Z" fill="white"/>
<path d="M189.094 -15.3099C222.029 -10.6517 244.382 16.32 239.02 44.9332C233.658 73.5464 202.612 92.9658 169.677 88.3076C136.741 83.6494 114.388 56.6775 119.75 28.0643C125.112 -0.54888 156.158 -19.9681 189.094 -15.3099Z" fill="white"/>
<path d="M204.414 70.9349C226.058 73.996 240.747 91.7205 237.223 110.523C233.7 129.326 213.298 142.088 191.655 139.026C170.011 135.965 155.322 118.241 158.846 99.4381C162.369 80.6351 182.771 67.8738 204.414 70.9349Z" fill="white"/>
<path d="M138.446 455.18C182.303 455.18 217.855 486.515 217.855 525.168C217.855 563.821 182.303 595.156 138.446 595.156C94.5893 595.156 59.0365 563.821 59.0365 525.168C59.0365 486.515 94.5893 455.18 138.446 455.18Z" fill="white"/>
<path d="M125.837 188.471C166.615 194.238 194.29 227.632 187.651 263.058C181.013 298.484 142.575 322.527 101.797 316.76C61.0199 310.992 33.3448 277.599 39.9834 242.173C46.6219 206.747 85.06 182.704 125.837 188.471Z" fill="white"/>
<path d="M252.957 856.11C278.699 856.11 299.567 874.016 299.567 896.103C299.567 918.191 278.699 936.096 252.957 936.096C227.215 936.096 206.347 918.191 206.347 896.103C206.347 874.016 227.215 856.11 252.957 856.11Z" fill="white"/>
<path d="M351.931 1250.04C377.673 1250.04 398.541 1268.39 398.541 1291.03C398.541 1313.67 377.673 1332.03 351.931 1332.03C326.189 1332.03 305.321 1313.67 305.321 1291.03C305.321 1268.39 326.189 1250.04 351.931 1250.04Z" fill="white"/>
<path d="M351.931 1036.08C377.673 1036.08 398.541 1054.21 398.541 1076.57C398.541 1098.94 377.673 1117.06 351.931 1117.06C326.189 1117.06 305.321 1098.94 305.321 1076.57C305.321 1054.21 326.189 1036.08 351.931 1036.08Z" fill="white"/>
<path d="M351.931 979.089C377.673 979.089 398.541 996.994 398.541 1019.08C398.541 1041.17 377.673 1059.07 351.931 1059.07C326.189 1059.07 305.321 1041.17 305.321 1019.08C305.321 996.994 326.189 979.089 351.931 979.089Z" fill="white"/>
<path d="M309.086 881.532C337.159 871.731 371.058 887.87 384.802 917.58C398.545 947.291 386.93 979.321 358.857 989.123C330.785 998.924 296.886 982.784 283.142 953.074C269.398 923.364 281.014 891.333 309.086 881.532Z" fill="white"/>
<path d="M361.713 1070.57L319.707 1434.01L2236.5 1434.01V687.64L2246 -3.74011L978 -3.74011H181.028V25.7548C181.028 35.2531 181.028 51.2503 187.358 76.7458C193.687 102.241 195.414 110.74 181.028 159.231C166.642 207.723 168.368 192.226 153.407 212.222C138.446 232.219 110.25 275.211 105.071 288.209C99.8921 301.207 98.7413 342.2 96.4395 368.695C94.1378 395.19 152.256 488.174 153.407 506.671C154.558 525.168 171.246 557.662 179.877 588.657C188.508 619.651 206.922 667.643 208.073 696.638C208.994 719.834 224.185 790.622 231.666 823.116C243.174 842.279 266.767 881.706 269.069 886.105C271.946 891.604 342.724 966.591 342.724 973.09C342.724 978.289 355.384 1040.24 361.713 1070.57Z" fill="white"/>
</svg>
