<svg width="430" height="179" viewBox="0 0 430 179" fill="none" xmlns="http://www.w3.org/2000/svg">
<path d="M1039 111.24L1018.67 122.364C998.333 133.488 957.667 155.736 917 144.612C876.333 133.488 835.667 88.9917 795 77.8678C754.333 66.7438 713.667 88.9917 673 88.9917C632.333 88.9917 591.667 66.7438 551 70.4286C510.333 74.3915 469.667 103.592 429 114.925C388.333 125.84 347.667 118.887 307 133.488C266.333 148.088 225.667 185.631 185 177.984C144.333 170.336 103.667 118.887 63 111.24C22.3333 103.592 -18.3334 141.135 -59 140.927C-99.6667 141.135 -140.333 103.592 -181 77.8678C-221.667 52.1436 -262.333 36.8481 -303 40.8111C-343.667 44.4959 -384.333 66.7438 -425 66.7438C-465.667 66.7438 -506.333 44.4959 -547 44.4959C-587.667 44.4959 -628.333 66.7438 -669 66.7438C-709.667 66.7438 -750.333 44.4959 -770.667 33.3719L-791 22.2479V0H-770.667C-750.333 0 -709.667 0 -669 0C-628.333 0 -587.667 0 -547 0C-506.333 0 -465.667 0 -425 0C-384.333 0 -343.667 0 -303 0C-262.333 0 -221.667 0 -181 0C-140.333 0 -99.6667 0 -59 0C-18.3334 0 22.3333 0 63 0C103.667 0 144.333 0 185 0C225.667 0 266.333 0 307 0C347.667 0 388.333 0 429 0C469.667 0 510.333 0 551 0C591.667 0 632.333 0 673 0C713.667 0 754.333 0 795 0C835.667 0 876.333 0 917 0C957.667 0 998.333 0 1018.67 0H1039V111.24Z" fill="white" fill-opacity="0.5"/>
</svg>
